{
  "accessors": [
    {
      "bufferView": 1,
      "componentType": 5126,
      "count": 65532,
      "max": [
        0.76454997062683105,
        0.84000998735427856,
        0.88498002290725708
      ],
      "min": [
        -0.85127997398376465,
        -0.85641002655029297,
        -0.84789001941680908
      ],
      "type": "VEC3"
    },
    {
      "bufferView": 1,
      "byteOffset": 786384,
      "componentType": 5126,
      "count": 65532,
      "max": [
        0.99999827146530151,
        0.99998313188552856,
        0.9999961256980896
      ],
      "min": [
        -0.9999660849571228,
        -0.9999961256980896,
        -0.99968516826629639
      ],
      "type": "VEC3"
    },
    {
      "bufferView": 0,
      "componentType": 5125,
      "count": 388521,
      "max": [
        65531
      ],
      "min": [
        0
      ],
      "type": "SCALAR"
    },
    {
      "bufferView": 1,
      "byteOffset": 1572768,
      "componentType": 5126,
      "count": 34511,
      "max": [
        0.74953001737594604,
        0.82128000259399414,
        0.88091999292373657
      ],
      "min": [
        -0.85061997175216675,
        -0.85623002052307129,
        -0.86134999990463257
      ],
      "type": "VEC3"
    },
    {
      "bufferView": 1,
      "byteOffset": 1986900,
      "componentType": 5126,
      "count": 34511,
      "max": [
        0.99535882472991943,
        0.99795079231262207,
        0.99997240304946899
      ],
      "min": [
        -0.9998822808265686,
        -0.99999624490737915,
        -0.99999314546585083
      ],
      "type": "VEC3"
    },
    {
      "bufferView": 0,
      "byteOffset": 1554084,
      "componentType": 5125,
      "count": 201303,
      "max": [
        34510
      ],
      "min": [
        0
      ],
      "type": "SCALAR"
    },
    {
      "bufferView": 1,
      "byteOffset": 2401032,
      "componentType": 5126,
      "count": 2370,
      "max": [
        0.61545997858047485,
        0.62344998121261597,
        3.1490299701690674
      ],
      "min": [
        -0.43878000974655151,
        -0.45232999324798584,
        -0.95003998279571533
      ],
      "type": "VEC3"
    },
    {
      "bufferView": 1,
      "byteOffset": 2429472,
      "componentType": 5126,
      "count": 2370,
      "max": [
        0.9998815655708313,
        0.99988490343093872,
        0.99998456239700317
      ],
      "min": [
        -0.99963122606277466,
        -0.99998575448989868,
        -0.99700093269348145
      ],
      "type": "VEC3"
    },
    {
      "bufferView": 0,
      "byteOffset": 2359296,
      "componentType": 5125,
      "count": 14208,
      "max": [
        2369
      ],
      "min": [
        0
      ],
      "type": "SCALAR"
    },
    {
      "bufferView": 1,
      "byteOffset": 2457912,
      "componentType": 5126,
      "count": 4834,
      "max": [
        1.8140599727630615,
        1.7662700414657593,
        1.5963699817657471
      ],
      "min": [
        -1.6937299966812134,
        -1.5653699636459351,
        -0.19341999292373657
      ],
      "type": "VEC3"
    },
    {
      "bufferView": 1,
      "byteOffset": 2515920,
      "componentType": 5126,
      "count": 4834,
      "max": [
        0.99991083145141602,
        0.99972999095916748,
        0.9996875524520874
      ],
      "min": [
        -0.99995356798171997,
        -0.99972939491271973,
        -0.99983406066894531
      ],
      "type": "VEC3"
    },
    {
      "bufferView": 0,
      "byteOffset": 2416128,
      "componentType": 5125,
      "count": 28992,
      "max": [
        4833
      ],
      "min": [
        0
      ],
      "type": "SCALAR"
    },
    {
      "bufferView": 1,
      "byteOffset": 2573928,
      "componentType": 5126,
      "count": 30722,
      "max": [
        0.74528998136520386,
        0.82642000913619995,
        0.86637002229690552
      ],
      "min": [
        -0.82370001077651978,
        -0.79361999034881592,
        -0.86243999004364014
      ],
      "type": "VEC3"
    },
    {
      "bufferView": 1,
      "byteOffset": 2942592,
      "componentType": 5126,
      "count": 30722,
      "max": [
        0.99978035688400269,
        0.99985629320144653,
        0.99999254941940308
      ],
      "min": [
        -0.99994975328445435,
        -0.99998408555984497,
        -0.99959456920623779
      ],
      "type": "VEC3"
    },
    {
      "bufferView": 0,
      "byteOffset": 2532096,
      "componentType": 5125,
      "count": 184320,
      "max": [
        30721
      ],
      "min": [
        0
      ],
      "type": "SCALAR"
    },
    {
      "bufferView": 1,
      "byteOffset": 3311256,
      "componentType": 5126,
      "count": 1826,
      "max": [
        0.83342999219894409,
        0.74611997604370117,
        -0.43349000811576843
      ],
      "min": [
        -0.78222000598907471,
        -1.2107100486755371,
        -1.2872400283813477
      ],
      "type": "VEC3"
    },
    {
      "bufferView": 1,
      "byteOffset": 3333168,
      "componentType": 5126,
      "count": 1826,
      "max": [
        0.99968433380126953,
        0.99901062250137329,
        0.99903810024261475
      ],
      "min": [
        -0.99968636035919189,
        -0.99988371133804321,
        -0.99989956617355347
      ],
      "type": "VEC3"
    },
    {
      "bufferView": 0,
      "byteOffset": 3269376,
      "componentType": 5125,
      "count": 10944,
      "max": [
        1825
      ],
      "min": [
        0
      ],
      "type": "SCALAR"
    },
    {
      "bufferView": 1,
      "byteOffset": 3355080,
      "componentType": 5126,
      "count": 20823,
      "max": [
        0.91776001453399658,
        0.91776001453399658,
        0.050110001116991043
      ],
      "min": [
        -0.91776001453399658,
        -0.91776001453399658,
        -0.050110001116991043
      ],
      "type": "VEC3"
    },
    {
      "bufferView": 1,
      "byteOffset": 3604956,
      "componentType": 5126,
      "count": 20823,
      "max": [
        1,
        1,
        1
      ],
      "min": [
        -1,
        -1,
        -1
      ],
      "type": "VEC3"
    },
    {
      "bufferView": 0,
      "byteOffset": 3313152,
      "componentType": 5125,
      "count": 125952,
      "max": [
        20822
      ],
      "min": [
        0
      ],
      "type": "SCALAR"
    },
    {
      "bufferView": 1,
      "byteOffset": 3854832,
      "componentType": 5126,
      "count": 20823,
      "max": [
        0.91776001453399658,
        0.91776001453399658,
        0.050110001116991043
      ],
      "min": [
        -0.91776001453399658,
        -0.91776001453399658,
        -0.050110001116991043
      ],
      "type": "VEC3"
    },
    {
      "bufferView": 1,
      "byteOffset": 4104708,
      "componentType": 5126,
      "count": 20823,
      "max": [
        1,
        1,
        1
      ],
      "min": [
        -1,
        -1,
        -1
      ],
      "type": "VEC3"
    },
    {
      "bufferView": 0,
      "byteOffset": 3816960,
      "componentType": 5125,
      "count": 125952,
      "max": [
        20822
      ],
      "min": [
        0
      ],
      "type": "SCALAR"
    },
    {
      "bufferView": 1,
      "byteOffset": 4354584,
      "componentType": 5126,
      "count": 55814,
      "max": [
        0.83197999000549316,
        1.6239399909973145,
        1.6421600580215454
      ],
      "min": [
        -1.7554999589920044,
        -1.7844799757003784,
        -0.4449400007724762
      ],
      "type": "VEC3"
    },
    {
      "bufferView": 1,
      "byteOffset": 5024352,
      "componentType": 5126,
      "count": 55814,
      "max": [
        0.99968397617340088,
        0.99997204542160034,
        0.99999994039535522
      ],
      "min": [
        -0.99982309341430664,
        -0.99997729063034058,
        -0.99999409914016724
      ],
      "type": "VEC3"
    },
    {
      "bufferView": 0,
      "byteOffset": 4320768,
      "componentType": 5125,
      "count": 334848,
      "max": [
        55813
      ],
      "min": [
        0
      ],
      "type": "SCALAR"
    }
  ],
  "asset": {
    "extras": {
      "author": "Xan San (https://sketchfab.com/xansan3dartist)",
      "license": "CC-BY-4.0 (http://creativecommons.org/licenses/by/4.0/)",
      "source": "https://sketchfab.com/models/2a5e3e74aeb7494f80aa9db7c66cfb9f",
      "title": "Snow Man"
    },
    "generator": "Sketchfab-3.29.3",
    "version": "2.0"
  },
  "bufferViews": [
    {
      "buffer": 0,
      "byteLength": 5660160,
      "byteOffset": 0,
      "name": "floatBufferViews",
      "target": 34963
    },
    {
      "buffer": 0,
      "byteLength": 5694120,
      "byteOffset": 5660160,
      "byteStride": 12,
      "name": "floatBufferViews",
      "target": 34962
    }
  ],
  "buffers": [
    {
      "byteLength": 11354280,
      "uri": "scene.bin"
    }
  ],
  "materials": [
    {
      "doubleSided": true,
      "emissiveFactor": [
        0,
        0,
        0
      ],
      "name": "Scene_-_Root",
      "pbrMetallicRoughness": {
        "baseColorFactor": [
          0.5,
          0.5,
          0.5,
          1
        ],
        "metallicFactor": 0,
        "roughnessFactor": 0.59999999999999998
      }
    }
  ],
  "meshes": [
    {
      "name": "thantuyet",
      "primitives": [
        {
          "attributes": {
            "NORMAL": 1,
            "POSITION": 0
          },
          "indices": 2,
          "material": 0,
          "mode": 4
        }
      ]
    },
    {
      "name": "thantuyet",
      "primitives": [
        {
          "attributes": {
            "NORMAL": 4,
            "POSITION": 3
          },
          "indices": 5,
          "material": 0,
          "mode": 4
        }
      ]
    },
    {
      "name": "mui",
      "primitives": [
        {
          "attributes": {
            "NORMAL": 7,
            "POSITION": 6
          },
          "indices": 8,
          "material": 0,
          "mode": 4
        }
      ]
    },
    {
      "name": "non",
      "primitives": [
        {
          "attributes": {
            "NORMAL": 10,
            "POSITION": 9
          },
          "indices": 11,
          "material": 0,
          "mode": 4
        }
      ]
    },
    {
      "name": "dautuyet",
      "primitives": [
        {
          "attributes": {
            "NORMAL": 13,
            "POSITION": 12
          },
          "indices": 14,
          "material": 0,
          "mode": 4
        }
      ]
    },
    {
      "name": "khanchoang",
      "primitives": [
        {
          "attributes": {
            "NORMAL": 16,
            "POSITION": 15
          },
          "indices": 17,
          "material": 0,
          "mode": 4
        }
      ]
    },
    {
      "name": "mat",
      "primitives": [
        {
          "attributes": {
            "NORMAL": 19,
            "POSITION": 18
          },
          "indices": 20,
          "material": 0,
          "mode": 4
        }
      ]
    },
    {
      "name": "mat.001",
      "primitives": [
        {
          "attributes": {
            "NORMAL": 22,
            "POSITION": 21
          },
          "indices": 23,
          "material": 0,
          "mode": 4
        }
      ]
    },
    {
      "name": "non.001",
      "primitives": [
        {
          "attributes": {
            "NORMAL": 25,
            "POSITION": 24
          },
          "indices": 26,
          "material": 0,
          "mode": 4
        }
      ]
    }
  ],
  "nodes": [
    {
      "children": [
        1
      ],
      "name": "RootNode (gltf orientation matrix)",
      "rotation": [
        -0.70710678118654746,
        -0,
        -0,
        0.70710678118654757
      ]
    },
    {
      "children": [
        2
      ],
      "name": "RootNode (model correction matrix)"
    },
    {
      "children": [
        3,
        6,
        8,
        10,
        12,
        14,
        16,
        18
      ],
      "name": "Root"
    },
    {
      "children": [
        4,
        5
      ],
      "matrix": [
        -1.6542500000000002,
        0.11842000000000003,
        0,
        0,
        -0.11842000000000003,
        -1.6542500000000002,
        0,
        0,
        0,
        0,
        1.4665899999999998,
        0,
        0,
        0,
        1.11144,
        1
      ],
      "name": "thantuyet"
    },
    {
      "mesh": 0,
      "name": "thantuyet"
    },
    {
      "mesh": 1,
      "name": "thantuyet"
    },
    {
      "children": [
        7
      ],
      "matrix": [
        -0.047520000000000007,
        -0.0078300000000000019,
        0.23000000000000001,
        0,
        0.0015800000000000005,
        -0.23486000000000001,
        -0.0076700000000000015,
        0,
        0.23013,
        0,
        0.047550000000000009,
        0,
        0.88444000000000011,
        0,
        3.1631300000000007,
        1
      ],
      "name": "mui"
    },
    {
      "mesh": 2,
      "name": "mui"
    },
    {
      "children": [
        9
      ],
      "matrix": [
        -0.57050999999999996,
        0.043320000000000011,
        0.20170000000000002,
        0,
        -0.040840000000000008,
        -0.6051200000000001,
        0.014440000000000001,
        0,
        0.20222000000000001,
        -0,
        0.57197000000000009,
        0,
        0.11471000000000002,
        -0.028680000000000004,
        3.7030900000000004,
        1
      ],
      "name": "non"
    },
    {
      "mesh": 3,
      "name": "non"
    },
    {
      "children": [
        11
      ],
      "matrix": [
        -0.95981000000000005,
        0.068710000000000021,
        0,
        0,
        -0.068710000000000021,
        -0.95981000000000005,
        0,
        0,
        0,
        0,
        0.96227000000000007,
        0,
        0,
        0,
        3.1185800000000001,
        1
      ],
      "name": "dautuyet"
    },
    {
      "mesh": 4,
      "name": "dautuyet"
    },
    {
      "children": [
        13
      ],
      "matrix": [
        -0.36411000000000004,
        0.90239999999999998,
        0.025070000000000005,
        0,
        -0.90027000000000001,
        -0.36497000000000007,
        0.06199000000000001,
        0,
        0.066860000000000017,
        -0,
        0.97110999999999992,
        0,
        0.033800000000000011,
        0.050320000000000011,
        3.1185800000000001,
        1
      ],
      "name": "khanchoang"
    },
    {
      "mesh": 5,
      "name": "khanchoang"
    },
    {
      "children": [
        15
      ],
      "matrix": [
        0.059220000000000009,
        0.012190000000000001,
        -0.14696000000000004,
        0,
        -0.032050000000000009,
        0.15565000000000001,
        0,
        0,
        0.25578999999999996,
        0.052670000000000015,
        0.10744000000000001,
        0,
        0.73098000000000007,
        0.26627000000000001,
        3.41472,
        1
      ],
      "name": "mat"
    },
    {
      "mesh": 6,
      "name": "mat"
    },
    {
      "children": [
        17
      ],
      "matrix": [
        0.053250000000000013,
        0.062740000000000018,
        -0.093730000000000036,
        0,
        0.0019200000000000007,
        0.10313000000000001,
        0.070120000000000016,
        0,
        0.20040000000000002,
        -0.055760000000000004,
        0.076520000000000019,
        0,
        0.71301000000000003,
        -0.32130000000000009,
        3.3543399999999997,
        1
      ],
      "name": "mat.001"
    },
    {
      "mesh": 7,
      "name": "mat.001"
    },
    {
      "children": [
        19
      ],
      "matrix": [
        -0.57050999999999996,
        0.043320000000000011,
        0.20170000000000002,
        0,
        -0.040840000000000008,
        -0.6051200000000001,
        0.014440000000000001,
        0,
        0.20222000000000001,
        -0,
        0.57197000000000009,
        0,
        0.11937000000000002,
        -0.13948000000000002,
        3.7385800000000002,
        1
      ],
      "name": "non.001"
    },
    {
      "mesh": 8,
      "name": "non.001"
    }
  ],
  "scene": 0,
  "scenes": [
    {
      "name": "OSG_Scene",
      "nodes": [
        0
      ]
    }
  ]
}

